<?xml version="1.0" encoding="UTF-8" standalone="no"?>
<!DOCTYPE svg PUBLIC "-//W3C//DTD SVG 1.1//EN"
 "http://www.w3.org/Graphics/SVG/1.1/DTD/svg11.dtd">
<!-- Generated by graphviz version 13.0.1 (20250615.1724)
 -->
<!-- Pages: 1 -->
<svg width="628pt" height="483pt"
 viewBox="0.00 0.00 628.00 483.00" xmlns="http://www.w3.org/2000/svg" xmlns:xlink="http://www.w3.org/1999/xlink">
<g id="graph0" class="graph" transform="scale(1 1) rotate(0) translate(4 478.65)">
<polygon fill="#333333" stroke="none" points="-4,4 -4,-478.65 624.29,-478.65 624.29,4 -4,4"/>
<text xml:space="preserve" text-anchor="middle" x="310.15" y="-7.55" font-family="Times,serif" font-size="16.00" fill="white">Network Map</text>
<!-- SW2 -->
<g id="node1" class="node">
<title>SW2</title>
<polygon fill="#006699" stroke="#006699" points="519.61,-224.45 432.01,-224.45 432.01,-151.85 519.61,-151.85 519.61,-224.45"/>
<text xml:space="preserve" text-anchor="middle" x="475.81" y="-182.35" font-family="Helvetica,sans-Serif" font-size="14.00" fill="white">SW2</text>
</g>
<!-- SW1 -->
<g id="node2" class="node">
<title>SW1</title>
<polygon fill="#006699" stroke="#006699" points="336.61,-224.45 249.01,-224.45 249.01,-151.85 336.61,-151.85 336.61,-224.45"/>
<text xml:space="preserve" text-anchor="middle" x="292.81" y="-182.35" font-family="Helvetica,sans-Serif" font-size="14.00" fill="white">SW1</text>
</g>
<!-- R2 -->
<g id="node3" class="node">
<title>R2</title>
<polygon fill="#006699" stroke="#006699" points="391.23,-99.35 316.38,-99.35 316.38,-26.75 391.23,-26.75 391.23,-99.35"/>
<text xml:space="preserve" text-anchor="middle" x="353.81" y="-57.25" font-family="Helvetica,sans-Serif" font-size="14.00" fill="white">R2</text>
</g>
<!-- SW1&#45;&#45;R2 -->
<g id="edge2" class="edge">
<title>SW1&#45;&#45;R2</title>
<path fill="none" stroke="green" stroke-dasharray="5,2" d="M321.32,-151.47C325.16,-145.76 328.81,-139.78 331.81,-133.85 337.2,-123.19 341.6,-110.95 345.01,-99.73"/>
<text xml:space="preserve" text-anchor="middle" x="387.79" y="-120.55" font-family="Courier,monospace" font-size="14.00" fill="white"> &#160;&#160;&#160;&#160;&#160;&#160;&#160;&#160;&#160;&#160;&#160;</text>
<text xml:space="preserve" text-anchor="middle" x="320.26" y="-102.93" font-family="Courier,monospace" font-size="14.00" fill="white">Eth0/0</text>
<text xml:space="preserve" text-anchor="middle" x="296.57" y="-138.17" font-family="Courier,monospace" font-size="14.00" fill="white">Eth0/2</text>
</g>
<!-- R6 -->
<g id="node4" class="node">
<title>R6</title>
<polygon fill="#006699" stroke="#006699" points="86.23,-349.55 11.38,-349.55 11.38,-276.95 86.23,-276.95 86.23,-349.55"/>
<text xml:space="preserve" text-anchor="middle" x="48.81" y="-307.45" font-family="Helvetica,sans-Serif" font-size="14.00" fill="white">R6</text>
</g>
<!-- SW1&#45;&#45;R6 -->
<g id="edge4" class="edge">
<title>SW1&#45;&#45;R6</title>
<path fill="none" stroke="green" stroke-dasharray="5,2" d="M248.82,-193.9C190.03,-201.15 90.27,-216.88 64.81,-242.45 55.86,-251.44 51.5,-264.34 49.5,-276.62"/>
<text xml:space="preserve" text-anchor="middle" x="114.31" y="-245.65" font-family="Courier,monospace" font-size="14.00" fill="white"> &#160;&#160;&#160;&#160;&#160;&#160;&#160;&#160;&#160;&#160;&#160;</text>
<text xml:space="preserve" text-anchor="middle" x="24.75" y="-263.32" font-family="Courier,monospace" font-size="14.00" fill="white">Eth0/1</text>
<text xml:space="preserve" text-anchor="middle" x="224.07" y="-180.6" font-family="Courier,monospace" font-size="14.00" fill="white">Eth0/5</text>
</g>
<!-- R1 -->
<g id="node5" class="node">
<title>R1</title>
<polygon fill="#006699" stroke="#006699" points="269.23,-349.55 194.38,-349.55 194.38,-276.95 269.23,-276.95 269.23,-349.55"/>
<text xml:space="preserve" text-anchor="middle" x="231.81" y="-307.45" font-family="Helvetica,sans-Serif" font-size="14.00" fill="white">R1</text>
</g>
<!-- SW1&#45;&#45;R1 -->
<g id="edge1" class="edge">
<title>SW1&#45;&#45;R1</title>
<path fill="none" stroke="green" stroke-dasharray="5,2" d="M248.61,-196.22C221.46,-203.09 188.74,-216.49 171.81,-242.45 160.46,-259.85 176.11,-277.58 194.27,-290.81"/>
<text xml:space="preserve" text-anchor="middle" x="221.31" y="-245.65" font-family="Courier,monospace" font-size="14.00" fill="white"> &#160;&#160;&#160;&#160;&#160;&#160;&#160;&#160;&#160;&#160;&#160;</text>
<text xml:space="preserve" text-anchor="middle" x="169.52" y="-277.51" font-family="Courier,monospace" font-size="14.00" fill="white">Eth0/0</text>
<text xml:space="preserve" text-anchor="middle" x="223.86" y="-199.42" font-family="Courier,monospace" font-size="14.00" fill="white">Eth0/1</text>
</g>
<!-- R3 -->
<g id="node8" class="node">
<title>R3</title>
<polygon fill="#006699" stroke="#006699" points="513.23,-349.55 438.38,-349.55 438.38,-276.95 513.23,-276.95 513.23,-349.55"/>
<text xml:space="preserve" text-anchor="middle" x="475.81" y="-307.45" font-family="Helvetica,sans-Serif" font-size="14.00" fill="white">R3</text>
</g>
<!-- SW1&#45;&#45;R3 -->
<g id="edge3" class="edge">
<title>SW1&#45;&#45;R3</title>
<path fill="none" stroke="green" stroke-dasharray="5,2" d="M337.05,-215.33C350.89,-223.76 366.11,-233.3 379.81,-242.45 399.34,-255.5 420.51,-270.77 437.99,-283.7"/>
<text xml:space="preserve" text-anchor="middle" x="450.75" y="-245.65" font-family="Courier,monospace" font-size="14.00" fill="white"> &#160;&#160;&#160;&#160;&#160;&#160;&#160;&#160;&#160;&#160;&#160;</text>
<text xml:space="preserve" text-anchor="middle" x="413.24" y="-270.4" font-family="Courier,monospace" font-size="14.00" fill="white">Eth0/0</text>
<text xml:space="preserve" text-anchor="middle" x="361.8" y="-202.03" font-family="Courier,monospace" font-size="14.00" fill="white">Eth0/3</text>
</g>
<!-- R2&#45;&#45;SW2 -->
<g id="edge7" class="edge">
<title>R2&#45;&#45;SW2</title>
<path fill="none" stroke="green" stroke-dasharray="5,2" d="M391.37,-81.09C408.07,-90.07 427.03,-102.35 440.81,-117.35 449.8,-127.13 457.03,-139.66 462.54,-151.39"/>
<text xml:space="preserve" text-anchor="middle" x="501.83" y="-120.55" font-family="Courier,monospace" font-size="14.00" fill="white"> &#160;&#160;&#160;&#160;&#160;&#160;&#160;&#160;&#160;&#160;&#160;</text>
<text xml:space="preserve" text-anchor="middle" x="433.66" y="-138.09" font-family="Courier,monospace" font-size="14.00" fill="white">Eth0/11</text>
<text xml:space="preserve" text-anchor="middle" x="416.12" y="-67.79" font-family="Courier,monospace" font-size="14.00" fill="white">Eth0/1</text>
</g>
<!-- R2&#45;&#45;SW1 -->
<g id="edge6" class="edge">
<title>R2&#45;&#45;SW1</title>
<path fill="none" stroke="green" stroke-dasharray="5,2" d="M316.12,-68.95C286.83,-74.96 248.06,-88.22 228.81,-117.35 217.93,-133.81 231.32,-150.18 248.61,-162.92"/>
<text xml:space="preserve" text-anchor="middle" x="278.31" y="-120.55" font-family="Courier,monospace" font-size="14.00" fill="white"> &#160;&#160;&#160;&#160;&#160;&#160;&#160;&#160;&#160;&#160;&#160;</text>
<text xml:space="preserve" text-anchor="middle" x="223.86" y="-149.62" font-family="Courier,monospace" font-size="14.00" fill="white">Eth0/2</text>
<text xml:space="preserve" text-anchor="middle" x="291.37" y="-55.65" font-family="Courier,monospace" font-size="14.00" fill="white">Eth0/0</text>
</g>
<!-- R1&#45;&#45;SW1 -->
<g id="edge5" class="edge">
<title>R1&#45;&#45;SW1</title>
<path fill="none" stroke="green" stroke-dasharray="5,2" d="M260.32,-276.57C264.16,-270.86 267.81,-264.88 270.81,-258.95 276.2,-248.29 280.6,-236.05 284.01,-224.83"/>
<text xml:space="preserve" text-anchor="middle" x="326.79" y="-245.65" font-family="Courier,monospace" font-size="14.00" fill="white"> &#160;&#160;&#160;&#160;&#160;&#160;&#160;&#160;&#160;&#160;&#160;</text>
<text xml:space="preserve" text-anchor="middle" x="259.26" y="-228.03" font-family="Courier,monospace" font-size="14.00" fill="white">Eth0/1</text>
<text xml:space="preserve" text-anchor="middle" x="235.57" y="-263.27" font-family="Courier,monospace" font-size="14.00" fill="white">Eth0/0</text>
</g>
<!-- R4 -->
<g id="node6" class="node">
<title>R4</title>
<polygon fill="#006699" stroke="#006699" points="452.23,-474.65 377.38,-474.65 377.38,-402.05 452.23,-402.05 452.23,-474.65"/>
<text xml:space="preserve" text-anchor="middle" x="414.81" y="-432.55" font-family="Helvetica,sans-Serif" font-size="14.00" fill="white">R4</text>
</g>
<!-- R5 -->
<g id="node7" class="node">
<title>R5</title>
<polygon fill="#006699" stroke="#006699" points="574.23,-474.65 499.38,-474.65 499.38,-402.05 574.23,-402.05 574.23,-474.65"/>
<text xml:space="preserve" text-anchor="middle" x="536.81" y="-432.55" font-family="Helvetica,sans-Serif" font-size="14.00" fill="white">R5</text>
</g>
<!-- R3&#45;&#45;SW1 -->
<g id="edge8" class="edge">
<title>R3&#45;&#45;SW1</title>
<path fill="none" stroke="green" stroke-dasharray="5,2" d="M503.79,-276.71C509.59,-265 511.82,-252.43 503.81,-242.45 480.73,-213.68 458.61,-233.28 422.81,-224.45 394.09,-217.36 362.01,-208.66 336.9,-201.67"/>
<text xml:space="preserve" text-anchor="middle" x="558.51" y="-245.65" font-family="Courier,monospace" font-size="14.00" fill="white"> &#160;&#160;&#160;&#160;&#160;&#160;&#160;&#160;&#160;&#160;&#160;</text>
<text xml:space="preserve" text-anchor="middle" x="361.65" y="-188.37" font-family="Courier,monospace" font-size="14.00" fill="white">Eth0/3</text>
<text xml:space="preserve" text-anchor="middle" x="479.04" y="-263.41" font-family="Courier,monospace" font-size="14.00" fill="white">Eth0/0</text>
</g>
<!-- R3&#45;&#45;R4 -->
<g id="edge9" class="edge">
<title>R3&#45;&#45;R4</title>
<path fill="none" stroke="green" stroke-dasharray="5,2" d="M438.17,-339.13C429.21,-347.07 420.8,-356.66 415.81,-367.55 411.02,-378.02 409.64,-390.33 409.81,-401.67"/>
<text xml:space="preserve" text-anchor="middle" x="465.31" y="-370.75" font-family="Courier,monospace" font-size="14.00" fill="white"> &#160;&#160;&#160;&#160;&#160;&#160;&#160;&#160;&#160;&#160;&#160;</text>
<text xml:space="preserve" text-anchor="middle" x="385.06" y="-388.37" font-family="Courier,monospace" font-size="14.00" fill="white">Eth0/0</text>
<text xml:space="preserve" text-anchor="middle" x="413.42" y="-325.83" font-family="Courier,monospace" font-size="14.00" fill="white">Eth0/1</text>
</g>
<!-- R3&#45;&#45;R5 -->
<g id="edge10" class="edge">
<title>R3&#45;&#45;R5</title>
<path fill="none" stroke="green" stroke-dasharray="5,2" d="M504.32,-349.93C508.16,-355.64 511.81,-361.62 514.81,-367.55 520.2,-378.21 524.6,-390.45 528.01,-401.67"/>
<text xml:space="preserve" text-anchor="middle" x="570.79" y="-370.75" font-family="Courier,monospace" font-size="14.00" fill="white"> &#160;&#160;&#160;&#160;&#160;&#160;&#160;&#160;&#160;&#160;&#160;</text>
<text xml:space="preserve" text-anchor="middle" x="503.26" y="-388.37" font-family="Courier,monospace" font-size="14.00" fill="white">Eth0/0</text>
<text xml:space="preserve" text-anchor="middle" x="479.57" y="-353.13" font-family="Courier,monospace" font-size="14.00" fill="white">Eth0/2</text>
</g>
</g>
</svg>
