<?xml version="1.0" encoding="UTF-8" standalone="no"?>
<!DOCTYPE svg PUBLIC "-//W3C//DTD SVG 1.1//EN"
 "http://www.w3.org/Graphics/SVG/1.1/DTD/svg11.dtd">
<!-- Generated by graphviz version 13.0.1 (20250615.1724)
 -->
<!-- Pages: 1 -->
<svg width="527pt" height="232pt"
 viewBox="0.00 0.00 527.00 232.00" xmlns="http://www.w3.org/2000/svg" xmlns:xlink="http://www.w3.org/1999/xlink">
<g id="graph0" class="graph" transform="scale(1 1) rotate(0) translate(4 228.45)">
<polygon fill="#333333" stroke="none" points="-4,4 -4,-228.45 523.5,-228.45 523.5,4 -4,4"/>
<text xml:space="preserve" text-anchor="middle" x="259.75" y="-7.55" font-family="Times,serif" font-size="16.00" fill="white">Network Map</text>
<!-- R4 -->
<g id="node1" class="node">
<title>R4</title>
<polygon fill="#006699" stroke="#006699" points="91.92,-224.45 17.07,-224.45 17.07,-151.85 91.92,-151.85 91.92,-224.45"/>
<text xml:space="preserve" text-anchor="middle" x="54.5" y="-182.35" font-family="Helvetica,sans-Serif" font-size="14.00" fill="white">R4</text>
</g>
<!-- R6 -->
<g id="node2" class="node">
<title>R6</title>
<polygon fill="#006699" stroke="#006699" points="335.92,-224.45 261.07,-224.45 261.07,-151.85 335.92,-151.85 335.92,-224.45"/>
<text xml:space="preserve" text-anchor="middle" x="298.5" y="-182.35" font-family="Helvetica,sans-Serif" font-size="14.00" fill="white">R6</text>
</g>
<!-- SW2 -->
<g id="node3" class="node">
<title>SW2</title>
<polygon fill="#006699" stroke="#006699" points="464.3,-224.45 376.7,-224.45 376.7,-151.85 464.3,-151.85 464.3,-224.45"/>
<text xml:space="preserve" text-anchor="middle" x="420.5" y="-182.35" font-family="Helvetica,sans-Serif" font-size="14.00" fill="white">SW2</text>
</g>
<!-- R3 -->
<g id="node4" class="node">
<title>R3</title>
<polygon fill="#006699" stroke="#006699" points="152.92,-99.35 78.07,-99.35 78.07,-26.75 152.92,-26.75 152.92,-99.35"/>
<text xml:space="preserve" text-anchor="middle" x="115.5" y="-57.25" font-family="Helvetica,sans-Serif" font-size="14.00" fill="white">R3</text>
</g>
<!-- R3&#45;&#45;R4 -->
<g id="edge3" class="edge">
<title>R3&#45;&#45;R4</title>
<path fill="none" stroke="green" stroke-dasharray="5,2" d="M77.86,-88.93C68.9,-96.87 60.49,-106.46 55.5,-117.35 50.71,-127.82 49.33,-140.13 49.5,-151.47"/>
<text xml:space="preserve" text-anchor="middle" x="105" y="-120.55" font-family="Courier,monospace" font-size="14.00" fill="white"> &#160;&#160;&#160;&#160;&#160;&#160;&#160;&#160;&#160;&#160;&#160;</text>
<text xml:space="preserve" text-anchor="middle" x="24.75" y="-138.17" font-family="Courier,monospace" font-size="14.00" fill="white">Eth0/0</text>
<text xml:space="preserve" text-anchor="middle" x="53.11" y="-75.63" font-family="Courier,monospace" font-size="14.00" fill="white">Eth0/1</text>
</g>
<!-- R5 -->
<g id="node6" class="node">
<title>R5</title>
<polygon fill="#006699" stroke="#006699" points="213.92,-224.45 139.07,-224.45 139.07,-151.85 213.92,-151.85 213.92,-224.45"/>
<text xml:space="preserve" text-anchor="middle" x="176.5" y="-182.35" font-family="Helvetica,sans-Serif" font-size="14.00" fill="white">R5</text>
</g>
<!-- R3&#45;&#45;R5 -->
<g id="edge4" class="edge">
<title>R3&#45;&#45;R5</title>
<path fill="none" stroke="green" stroke-dasharray="5,2" d="M144.01,-99.73C147.85,-105.44 151.5,-111.42 154.5,-117.35 159.89,-128.01 164.29,-140.25 167.7,-151.47"/>
<text xml:space="preserve" text-anchor="middle" x="210.48" y="-120.55" font-family="Courier,monospace" font-size="14.00" fill="white"> &#160;&#160;&#160;&#160;&#160;&#160;&#160;&#160;&#160;&#160;&#160;</text>
<text xml:space="preserve" text-anchor="middle" x="142.95" y="-138.17" font-family="Courier,monospace" font-size="14.00" fill="white">Eth0/0</text>
<text xml:space="preserve" text-anchor="middle" x="119.26" y="-102.93" font-family="Courier,monospace" font-size="14.00" fill="white">Eth0/2</text>
</g>
<!-- R2 -->
<g id="node5" class="node">
<title>R2</title>
<polygon fill="#006699" stroke="#006699" points="457.92,-99.35 383.07,-99.35 383.07,-26.75 457.92,-26.75 457.92,-99.35"/>
<text xml:space="preserve" text-anchor="middle" x="420.5" y="-57.25" font-family="Helvetica,sans-Serif" font-size="14.00" fill="white">R2</text>
</g>
<!-- R2&#45;&#45;SW2 -->
<g id="edge2" class="edge">
<title>R2&#45;&#45;SW2</title>
<path fill="none" stroke="green" stroke-dasharray="5,2" d="M420.5,-99.66C420.5,-115.99 420.5,-135.3 420.5,-151.62"/>
<text xml:space="preserve" text-anchor="middle" x="470" y="-120.55" font-family="Courier,monospace" font-size="14.00" fill="white"> &#160;&#160;&#160;&#160;&#160;&#160;&#160;&#160;&#160;&#160;&#160;</text>
<text xml:space="preserve" text-anchor="middle" x="391.62" y="-138.32" font-family="Courier,monospace" font-size="14.00" fill="white">Eth0/11</text>
<text xml:space="preserve" text-anchor="middle" x="395.75" y="-102.86" font-family="Courier,monospace" font-size="14.00" fill="white">Eth0/1</text>
</g>
<!-- SW1 -->
<g id="node7" class="node">
<title>SW1</title>
<polygon fill="#006699" stroke="#006699" points="342.3,-99.35 254.7,-99.35 254.7,-26.75 342.3,-26.75 342.3,-99.35"/>
<text xml:space="preserve" text-anchor="middle" x="298.5" y="-57.25" font-family="Helvetica,sans-Serif" font-size="14.00" fill="white">SW1</text>
</g>
<!-- SW1&#45;&#45;R6 -->
<g id="edge1" class="edge">
<title>SW1&#45;&#45;R6</title>
<path fill="none" stroke="green" stroke-dasharray="5,2" d="M298.5,-99.66C298.5,-115.99 298.5,-135.3 298.5,-151.62"/>
<text xml:space="preserve" text-anchor="middle" x="348" y="-120.55" font-family="Courier,monospace" font-size="14.00" fill="white"> &#160;&#160;&#160;&#160;&#160;&#160;&#160;&#160;&#160;&#160;&#160;</text>
<text xml:space="preserve" text-anchor="middle" x="273.75" y="-138.32" font-family="Courier,monospace" font-size="14.00" fill="white">Eth0/1</text>
<text xml:space="preserve" text-anchor="middle" x="273.75" y="-102.86" font-family="Courier,monospace" font-size="14.00" fill="white">Eth0/5</text>
</g>
</g>
</svg>
