<?xml version="1.0" encoding="UTF-8" standalone="no"?>
<!DOCTYPE svg PUBLIC "-//W3C//DTD SVG 1.1//EN"
 "http://www.w3.org/Graphics/SVG/1.1/DTD/svg11.dtd">
<!-- Generated by graphviz version 13.0.1 (20250615.1724)
 -->
<!-- Pages: 1 -->
<svg width="576pt" height="358pt"
 viewBox="0.00 0.00 576.00 358.00" xmlns="http://www.w3.org/2000/svg" xmlns:xlink="http://www.w3.org/1999/xlink">
<g id="graph0" class="graph" transform="scale(1 1) rotate(0) translate(4 353.55)">
<polygon fill="#333333" stroke="none" points="-4,4 -4,-353.55 572.23,-353.55 572.23,4 -4,4"/>
<text xml:space="preserve" text-anchor="middle" x="284.12" y="-7.55" font-family="Times,serif" font-size="16.00" fill="white">Network Map</text>
<!-- R2 -->
<g id="node1" class="node">
<title>R2</title>
<polygon fill="#006699" stroke="#006699" points="95.17,-224.45 20.33,-224.45 20.33,-151.85 95.17,-151.85 95.17,-224.45"/>
<text xml:space="preserve" text-anchor="middle" x="57.75" y="-182.35" font-family="Helvetica,sans-Serif" font-size="14.00" fill="white">R2</text>
</g>
<!-- SW2 -->
<g id="node5" class="node">
<title>SW2</title>
<polygon fill="#006699" stroke="#006699" points="101.55,-349.55 13.95,-349.55 13.95,-276.95 101.55,-276.95 101.55,-349.55"/>
<text xml:space="preserve" text-anchor="middle" x="57.75" y="-307.45" font-family="Helvetica,sans-Serif" font-size="14.00" fill="white">SW2</text>
</g>
<!-- R2&#45;&#45;SW2 -->
<g id="edge5" class="edge">
<title>R2&#45;&#45;SW2</title>
<path fill="none" stroke="green" stroke-dasharray="5,2" d="M57.75,-224.76C57.75,-241.09 57.75,-260.4 57.75,-276.72"/>
<text xml:space="preserve" text-anchor="middle" x="107.25" y="-245.65" font-family="Courier,monospace" font-size="14.00" fill="white"> &#160;&#160;&#160;&#160;&#160;&#160;&#160;&#160;&#160;&#160;&#160;</text>
<text xml:space="preserve" text-anchor="middle" x="28.88" y="-263.42" font-family="Courier,monospace" font-size="14.00" fill="white">Eth0/11</text>
<text xml:space="preserve" text-anchor="middle" x="33" y="-227.96" font-family="Courier,monospace" font-size="14.00" fill="white">Eth0/1</text>
</g>
<!-- SW1 -->
<g id="node2" class="node">
<title>SW1</title>
<polygon fill="#006699" stroke="#006699" points="284.55,-99.35 196.95,-99.35 196.95,-26.75 284.55,-26.75 284.55,-99.35"/>
<text xml:space="preserve" text-anchor="middle" x="240.75" y="-57.25" font-family="Helvetica,sans-Serif" font-size="14.00" fill="white">SW1</text>
</g>
<!-- SW1&#45;&#45;R2 -->
<g id="edge2" class="edge">
<title>SW1&#45;&#45;R2</title>
<path fill="none" stroke="green" stroke-dasharray="5,2" d="M196.75,-65.25C157.19,-68.82 100.56,-80.59 68.75,-117.35 60.64,-126.72 57.22,-139.56 56.05,-151.68"/>
<text xml:space="preserve" text-anchor="middle" x="118.25" y="-120.55" font-family="Courier,monospace" font-size="14.00" fill="white"> &#160;&#160;&#160;&#160;&#160;&#160;&#160;&#160;&#160;&#160;&#160;</text>
<text xml:space="preserve" text-anchor="middle" x="31.3" y="-138.38" font-family="Courier,monospace" font-size="14.00" fill="white">Eth0/0</text>
<text xml:space="preserve" text-anchor="middle" x="172" y="-51.95" font-family="Courier,monospace" font-size="14.00" fill="white">Eth0/2</text>
</g>
<!-- R6 -->
<g id="node6" class="node">
<title>R6</title>
<polygon fill="#006699" stroke="#006699" points="217.18,-224.45 142.32,-224.45 142.32,-151.85 217.18,-151.85 217.18,-224.45"/>
<text xml:space="preserve" text-anchor="middle" x="179.75" y="-182.35" font-family="Helvetica,sans-Serif" font-size="14.00" fill="white">R6</text>
</g>
<!-- SW1&#45;&#45;R6 -->
<g id="edge4" class="edge">
<title>SW1&#45;&#45;R6</title>
<path fill="none" stroke="green" stroke-dasharray="5,2" d="M196.59,-91.87C188.55,-99.12 181.29,-107.66 176.75,-117.35 171.86,-127.78 171.01,-140.09 171.88,-151.43"/>
<text xml:space="preserve" text-anchor="middle" x="226.25" y="-120.55" font-family="Courier,monospace" font-size="14.00" fill="white"> &#160;&#160;&#160;&#160;&#160;&#160;&#160;&#160;&#160;&#160;&#160;</text>
<text xml:space="preserve" text-anchor="middle" x="147.13" y="-138.13" font-family="Courier,monospace" font-size="14.00" fill="white">Eth0/1</text>
<text xml:space="preserve" text-anchor="middle" x="171.84" y="-78.57" font-family="Courier,monospace" font-size="14.00" fill="white">Eth0/5</text>
</g>
<!-- R1 -->
<g id="node7" class="node">
<title>R1</title>
<polygon fill="#006699" stroke="#006699" points="339.18,-224.45 264.32,-224.45 264.32,-151.85 339.18,-151.85 339.18,-224.45"/>
<text xml:space="preserve" text-anchor="middle" x="301.75" y="-182.35" font-family="Helvetica,sans-Serif" font-size="14.00" fill="white">R1</text>
</g>
<!-- SW1&#45;&#45;R1 -->
<g id="edge1" class="edge">
<title>SW1&#45;&#45;R1</title>
<path fill="none" stroke="green" stroke-dasharray="5,2" d="M269.26,-99.73C273.1,-105.44 276.75,-111.42 279.75,-117.35 285.14,-128.01 289.54,-140.25 292.95,-151.47"/>
<text xml:space="preserve" text-anchor="middle" x="335.73" y="-120.55" font-family="Courier,monospace" font-size="14.00" fill="white"> &#160;&#160;&#160;&#160;&#160;&#160;&#160;&#160;&#160;&#160;&#160;</text>
<text xml:space="preserve" text-anchor="middle" x="268.2" y="-138.17" font-family="Courier,monospace" font-size="14.00" fill="white">Eth0/0</text>
<text xml:space="preserve" text-anchor="middle" x="244.51" y="-102.93" font-family="Courier,monospace" font-size="14.00" fill="white">Eth0/1</text>
</g>
<!-- R3 -->
<g id="node8" class="node">
<title>R3</title>
<polygon fill="#006699" stroke="#006699" points="461.18,-224.45 386.32,-224.45 386.32,-151.85 461.18,-151.85 461.18,-224.45"/>
<text xml:space="preserve" text-anchor="middle" x="423.75" y="-182.35" font-family="Helvetica,sans-Serif" font-size="14.00" fill="white">R3</text>
</g>
<!-- SW1&#45;&#45;R3 -->
<g id="edge3" class="edge">
<title>SW1&#45;&#45;R3</title>
<path fill="none" stroke="green" stroke-dasharray="5,2" d="M284.73,-70.88C316.78,-77.83 359.54,-91.43 388.75,-117.35 398.99,-126.44 406.6,-139.22 412.06,-151.37"/>
<text xml:space="preserve" text-anchor="middle" x="451.86" y="-120.55" font-family="Courier,monospace" font-size="14.00" fill="white"> &#160;&#160;&#160;&#160;&#160;&#160;&#160;&#160;&#160;&#160;&#160;</text>
<text xml:space="preserve" text-anchor="middle" x="387.31" y="-138.07" font-family="Courier,monospace" font-size="14.00" fill="white">Eth0/0</text>
<text xml:space="preserve" text-anchor="middle" x="309.48" y="-57.58" font-family="Courier,monospace" font-size="14.00" fill="white">Eth0/3</text>
</g>
<!-- R4 -->
<g id="node3" class="node">
<title>R4</title>
<polygon fill="#006699" stroke="#006699" points="400.18,-349.55 325.32,-349.55 325.32,-276.95 400.18,-276.95 400.18,-349.55"/>
<text xml:space="preserve" text-anchor="middle" x="362.75" y="-307.45" font-family="Helvetica,sans-Serif" font-size="14.00" fill="white">R4</text>
</g>
<!-- R5 -->
<g id="node4" class="node">
<title>R5</title>
<polygon fill="#006699" stroke="#006699" points="522.17,-349.55 447.32,-349.55 447.32,-276.95 522.17,-276.95 522.17,-349.55"/>
<text xml:space="preserve" text-anchor="middle" x="484.75" y="-307.45" font-family="Helvetica,sans-Serif" font-size="14.00" fill="white">R5</text>
</g>
<!-- R3&#45;&#45;R4 -->
<g id="edge6" class="edge">
<title>R3&#45;&#45;R4</title>
<path fill="none" stroke="green" stroke-dasharray="5,2" d="M386.11,-214.03C377.15,-221.97 368.74,-231.56 363.75,-242.45 358.96,-252.92 357.58,-265.23 357.75,-276.57"/>
<text xml:space="preserve" text-anchor="middle" x="413.25" y="-245.65" font-family="Courier,monospace" font-size="14.00" fill="white"> &#160;&#160;&#160;&#160;&#160;&#160;&#160;&#160;&#160;&#160;&#160;</text>
<text xml:space="preserve" text-anchor="middle" x="333" y="-263.27" font-family="Courier,monospace" font-size="14.00" fill="white">Eth0/0</text>
<text xml:space="preserve" text-anchor="middle" x="361.36" y="-217.23" font-family="Courier,monospace" font-size="14.00" fill="white">Eth0/1</text>
</g>
<!-- R3&#45;&#45;R5 -->
<g id="edge7" class="edge">
<title>R3&#45;&#45;R5</title>
<path fill="none" stroke="green" stroke-dasharray="5,2" d="M452.26,-224.83C456.1,-230.54 459.75,-236.52 462.75,-242.45 468.14,-253.11 472.54,-265.35 475.95,-276.57"/>
<text xml:space="preserve" text-anchor="middle" x="518.73" y="-245.65" font-family="Courier,monospace" font-size="14.00" fill="white"> &#160;&#160;&#160;&#160;&#160;&#160;&#160;&#160;&#160;&#160;&#160;</text>
<text xml:space="preserve" text-anchor="middle" x="451.2" y="-263.27" font-family="Courier,monospace" font-size="14.00" fill="white">Eth0/0</text>
<text xml:space="preserve" text-anchor="middle" x="427.51" y="-228.03" font-family="Courier,monospace" font-size="14.00" fill="white">Eth0/2</text>
</g>
</g>
</svg>
