<?xml version="1.0" encoding="UTF-8" standalone="no"?>
<!DOCTYPE svg PUBLIC "-//W3C//DTD SVG 1.1//EN"
 "http://www.w3.org/Graphics/SVG/1.1/DTD/svg11.dtd">
<!-- Generated by graphviz version 13.0.1 (20250615.1724)
 -->
<!-- Pages: 1 -->
<svg width="509pt" height="358pt"
 viewBox="0.00 0.00 509.00 358.00" xmlns="http://www.w3.org/2000/svg" xmlns:xlink="http://www.w3.org/1999/xlink">
<g id="graph0" class="graph" transform="scale(1 1) rotate(0) translate(4 353.55)">
<polygon fill="#333333" stroke="none" points="-4,4 -4,-353.55 505.35,-353.55 505.35,4 -4,4"/>
<text xml:space="preserve" text-anchor="middle" x="250.68" y="-7.55" font-family="Times,serif" font-size="16.00" fill="white">Network Map</text>
<!-- R5 -->
<g id="node1" class="node">
<title>R5</title>
<polygon fill="#006699" stroke="#006699" points="330.35,-349.55 255.5,-349.55 255.5,-276.95 330.35,-276.95 330.35,-349.55"/>
<text xml:space="preserve" text-anchor="middle" x="292.92" y="-307.45" font-family="Helvetica,sans-Serif" font-size="14.00" fill="white">R5</text>
</g>
<!-- SW2 -->
<g id="node2" class="node">
<title>SW2</title>
<polygon fill="#006699" stroke="#006699" points="214.72,-349.55 127.12,-349.55 127.12,-276.95 214.72,-276.95 214.72,-349.55"/>
<text xml:space="preserve" text-anchor="middle" x="170.92" y="-307.45" font-family="Helvetica,sans-Serif" font-size="14.00" fill="white">SW2</text>
</g>
<!-- SW1 -->
<g id="node3" class="node">
<title>SW1</title>
<polygon fill="#006699" stroke="#006699" points="275.72,-99.35 188.12,-99.35 188.12,-26.75 275.72,-26.75 275.72,-99.35"/>
<text xml:space="preserve" text-anchor="middle" x="231.92" y="-57.25" font-family="Helvetica,sans-Serif" font-size="14.00" fill="white">SW1</text>
</g>
<!-- R6 -->
<g id="node4" class="node">
<title>R6</title>
<polygon fill="#006699" stroke="#006699" points="86.35,-224.45 11.5,-224.45 11.5,-151.85 86.35,-151.85 86.35,-224.45"/>
<text xml:space="preserve" text-anchor="middle" x="48.92" y="-182.35" font-family="Helvetica,sans-Serif" font-size="14.00" fill="white">R6</text>
</g>
<!-- SW1&#45;&#45;R6 -->
<g id="edge4" class="edge">
<title>SW1&#45;&#45;R6</title>
<path fill="none" stroke="green" stroke-dasharray="5,2" d="M187.88,-66.12C149.62,-70.35 95.51,-82.59 63.92,-117.35 55.5,-126.61 51.39,-139.43 49.5,-151.56"/>
<text xml:space="preserve" text-anchor="middle" x="113.42" y="-120.55" font-family="Courier,monospace" font-size="14.00" fill="white"> &#160;&#160;&#160;&#160;&#160;&#160;&#160;&#160;&#160;&#160;&#160;</text>
<text xml:space="preserve" text-anchor="middle" x="24.75" y="-138.26" font-family="Courier,monospace" font-size="14.00" fill="white">Eth0/1</text>
<text xml:space="preserve" text-anchor="middle" x="163.13" y="-52.82" font-family="Courier,monospace" font-size="14.00" fill="white">Eth0/5</text>
</g>
<!-- R2 -->
<g id="node5" class="node">
<title>R2</title>
<polygon fill="#006699" stroke="#006699" points="208.35,-224.45 133.5,-224.45 133.5,-151.85 208.35,-151.85 208.35,-224.45"/>
<text xml:space="preserve" text-anchor="middle" x="170.92" y="-182.35" font-family="Helvetica,sans-Serif" font-size="14.00" fill="white">R2</text>
</g>
<!-- SW1&#45;&#45;R2 -->
<g id="edge2" class="edge">
<title>SW1&#45;&#45;R2</title>
<path fill="none" stroke="green" stroke-dasharray="5,2" d="M187.86,-95.04C181.42,-101.63 175.69,-109.12 171.92,-117.35 167.13,-127.82 165.75,-140.13 165.92,-151.47"/>
<text xml:space="preserve" text-anchor="middle" x="221.42" y="-120.55" font-family="Courier,monospace" font-size="14.00" fill="white"> &#160;&#160;&#160;&#160;&#160;&#160;&#160;&#160;&#160;&#160;&#160;</text>
<text xml:space="preserve" text-anchor="middle" x="141.17" y="-138.17" font-family="Courier,monospace" font-size="14.00" fill="white">Eth0/0</text>
<text xml:space="preserve" text-anchor="middle" x="163.11" y="-81.74" font-family="Courier,monospace" font-size="14.00" fill="white">Eth0/2</text>
</g>
<!-- R3 -->
<g id="node6" class="node">
<title>R3</title>
<polygon fill="#006699" stroke="#006699" points="330.35,-224.45 255.5,-224.45 255.5,-151.85 330.35,-151.85 330.35,-224.45"/>
<text xml:space="preserve" text-anchor="middle" x="292.92" y="-182.35" font-family="Helvetica,sans-Serif" font-size="14.00" fill="white">R3</text>
</g>
<!-- SW1&#45;&#45;R3 -->
<g id="edge3" class="edge">
<title>SW1&#45;&#45;R3</title>
<path fill="none" stroke="green" stroke-dasharray="5,2" d="M260.43,-99.73C264.27,-105.44 267.92,-111.42 270.92,-117.35 276.31,-128.01 280.71,-140.25 284.12,-151.47"/>
<text xml:space="preserve" text-anchor="middle" x="326.91" y="-120.55" font-family="Courier,monospace" font-size="14.00" fill="white"> &#160;&#160;&#160;&#160;&#160;&#160;&#160;&#160;&#160;&#160;&#160;</text>
<text xml:space="preserve" text-anchor="middle" x="259.37" y="-138.17" font-family="Courier,monospace" font-size="14.00" fill="white">Eth0/0</text>
<text xml:space="preserve" text-anchor="middle" x="235.68" y="-102.93" font-family="Courier,monospace" font-size="14.00" fill="white">Eth0/3</text>
</g>
<!-- R1 -->
<g id="node8" class="node">
<title>R1</title>
<polygon fill="#006699" stroke="#006699" points="452.35,-224.45 377.5,-224.45 377.5,-151.85 452.35,-151.85 452.35,-224.45"/>
<text xml:space="preserve" text-anchor="middle" x="414.92" y="-182.35" font-family="Helvetica,sans-Serif" font-size="14.00" fill="white">R1</text>
</g>
<!-- SW1&#45;&#45;R1 -->
<g id="edge1" class="edge">
<title>SW1&#45;&#45;R1</title>
<path fill="none" stroke="green" stroke-dasharray="5,2" d="M275.9,-70.88C307.95,-77.83 350.71,-91.43 379.92,-117.35 390.16,-126.44 397.77,-139.22 403.23,-151.37"/>
<text xml:space="preserve" text-anchor="middle" x="443.03" y="-120.55" font-family="Courier,monospace" font-size="14.00" fill="white"> &#160;&#160;&#160;&#160;&#160;&#160;&#160;&#160;&#160;&#160;&#160;</text>
<text xml:space="preserve" text-anchor="middle" x="378.48" y="-138.07" font-family="Courier,monospace" font-size="14.00" fill="white">Eth0/0</text>
<text xml:space="preserve" text-anchor="middle" x="300.65" y="-57.58" font-family="Courier,monospace" font-size="14.00" fill="white">Eth0/1</text>
</g>
<!-- R2&#45;&#45;SW2 -->
<g id="edge5" class="edge">
<title>R2&#45;&#45;SW2</title>
<path fill="none" stroke="green" stroke-dasharray="5,2" d="M170.92,-224.76C170.92,-241.09 170.92,-260.4 170.92,-276.72"/>
<text xml:space="preserve" text-anchor="middle" x="220.42" y="-245.65" font-family="Courier,monospace" font-size="14.00" fill="white"> &#160;&#160;&#160;&#160;&#160;&#160;&#160;&#160;&#160;&#160;&#160;</text>
<text xml:space="preserve" text-anchor="middle" x="142.05" y="-263.42" font-family="Courier,monospace" font-size="14.00" fill="white">Eth0/11</text>
<text xml:space="preserve" text-anchor="middle" x="146.17" y="-227.96" font-family="Courier,monospace" font-size="14.00" fill="white">Eth0/1</text>
</g>
<!-- R3&#45;&#45;R5 -->
<g id="edge7" class="edge">
<title>R3&#45;&#45;R5</title>
<path fill="none" stroke="green" stroke-dasharray="5,2" d="M292.92,-224.76C292.92,-241.09 292.92,-260.4 292.92,-276.72"/>
<text xml:space="preserve" text-anchor="middle" x="342.42" y="-245.65" font-family="Courier,monospace" font-size="14.00" fill="white"> &#160;&#160;&#160;&#160;&#160;&#160;&#160;&#160;&#160;&#160;&#160;</text>
<text xml:space="preserve" text-anchor="middle" x="268.17" y="-263.42" font-family="Courier,monospace" font-size="14.00" fill="white">Eth0/0</text>
<text xml:space="preserve" text-anchor="middle" x="268.17" y="-227.96" font-family="Courier,monospace" font-size="14.00" fill="white">Eth0/2</text>
</g>
<!-- R4 -->
<g id="node7" class="node">
<title>R4</title>
<polygon fill="#006699" stroke="#006699" points="452.35,-349.55 377.5,-349.55 377.5,-276.95 452.35,-276.95 452.35,-349.55"/>
<text xml:space="preserve" text-anchor="middle" x="414.92" y="-307.45" font-family="Helvetica,sans-Serif" font-size="14.00" fill="white">R4</text>
</g>
<!-- R3&#45;&#45;R4 -->
<g id="edge6" class="edge">
<title>R3&#45;&#45;R4</title>
<path fill="none" stroke="green" stroke-dasharray="5,2" d="M330.75,-205.66C355.25,-217.02 384.15,-231.9 392.92,-242.45 400.96,-252.13 406.07,-264.76 409.32,-276.61"/>
<text xml:space="preserve" text-anchor="middle" x="451.85" y="-245.65" font-family="Courier,monospace" font-size="14.00" fill="white"> &#160;&#160;&#160;&#160;&#160;&#160;&#160;&#160;&#160;&#160;&#160;</text>
<text xml:space="preserve" text-anchor="middle" x="384.57" y="-263.31" font-family="Courier,monospace" font-size="14.00" fill="white">Eth0/0</text>
<text xml:space="preserve" text-anchor="middle" x="355.5" y="-192.36" font-family="Courier,monospace" font-size="14.00" fill="white">Eth0/1</text>
</g>
</g>
</svg>
