<?xml version="1.0" encoding="UTF-8" standalone="no"?>
<!DOCTYPE svg PUBLIC "-//W3C//DTD SVG 1.1//EN"
 "http://www.w3.org/Graphics/SVG/1.1/DTD/svg11.dtd">
<!-- Generated by graphviz version 13.0.1 (20250615.1724)
 -->
<!-- Pages: 1 -->
<svg width="868pt" height="358pt"
 viewBox="0.00 0.00 868.00 358.00" xmlns="http://www.w3.org/2000/svg" xmlns:xlink="http://www.w3.org/1999/xlink">
<g id="graph0" class="graph" transform="scale(1 1) rotate(0) translate(4 353.55)">
<polygon fill="#333333" stroke="none" points="-4,4 -4,-353.55 863.89,-353.55 863.89,4 -4,4"/>
<text xml:space="preserve" text-anchor="middle" x="429.95" y="-7.55" font-family="Times,serif" font-size="16.00" fill="white">Network Map</text>
<!-- R6 -->
<g id="node1" class="node">
<title>R6</title>
<polygon fill="#006699" stroke="#006699" points="579.92,-224.45 505.07,-224.45 505.07,-151.85 579.92,-151.85 579.92,-224.45"/>
<text xml:space="preserve" text-anchor="middle" x="542.5" y="-182.35" font-family="Helvetica,sans-Serif" font-size="14.00" fill="white">R6</text>
</g>
<!-- R3 -->
<g id="node2" class="node">
<title>R3</title>
<polygon fill="#006699" stroke="#006699" points="152.92,-224.45 78.07,-224.45 78.07,-151.85 152.92,-151.85 152.92,-224.45"/>
<text xml:space="preserve" text-anchor="middle" x="115.5" y="-182.35" font-family="Helvetica,sans-Serif" font-size="14.00" fill="white">R3</text>
</g>
<!-- SW1 -->
<g id="node5" class="node">
<title>SW1</title>
<polygon fill="#006699" stroke="#006699" points="464.3,-99.35 376.7,-99.35 376.7,-26.75 464.3,-26.75 464.3,-99.35"/>
<text xml:space="preserve" text-anchor="middle" x="420.5" y="-57.25" font-family="Helvetica,sans-Serif" font-size="14.00" fill="white">SW1</text>
</g>
<!-- R3&#45;&#45;SW1 -->
<g id="edge8" class="edge">
<title>R3&#45;&#45;SW1</title>
<path fill="none" stroke="green" stroke-dasharray="5,2" d="M147.5,-151.4C160.36,-138.97 176.04,-125.98 192.5,-117.35 251.54,-86.39 328.5,-73.22 376.2,-67.76"/>
<text xml:space="preserve" text-anchor="middle" x="242" y="-120.55" font-family="Courier,monospace" font-size="14.00" fill="white"> &#160;&#160;&#160;&#160;&#160;&#160;&#160;&#160;&#160;&#160;&#160;</text>
<text xml:space="preserve" text-anchor="middle" x="351.45" y="-54.46" font-family="Courier,monospace" font-size="14.00" fill="white">Eth0/3</text>
<text xml:space="preserve" text-anchor="middle" x="122.75" y="-138.1" font-family="Courier,monospace" font-size="14.00" fill="white">Eth0/0</text>
</g>
<!-- R4 -->
<g id="node6" class="node">
<title>R4</title>
<polygon fill="#006699" stroke="#006699" points="91.92,-349.55 17.07,-349.55 17.07,-276.95 91.92,-276.95 91.92,-349.55"/>
<text xml:space="preserve" text-anchor="middle" x="54.5" y="-307.45" font-family="Helvetica,sans-Serif" font-size="14.00" fill="white">R4</text>
</g>
<!-- R3&#45;&#45;R4 -->
<g id="edge9" class="edge">
<title>R3&#45;&#45;R4</title>
<path fill="none" stroke="green" stroke-dasharray="5,2" d="M77.86,-214.03C68.9,-221.97 60.49,-231.56 55.5,-242.45 50.71,-252.92 49.33,-265.23 49.5,-276.57"/>
<text xml:space="preserve" text-anchor="middle" x="105" y="-245.65" font-family="Courier,monospace" font-size="14.00" fill="white"> &#160;&#160;&#160;&#160;&#160;&#160;&#160;&#160;&#160;&#160;&#160;</text>
<text xml:space="preserve" text-anchor="middle" x="24.75" y="-263.27" font-family="Courier,monospace" font-size="14.00" fill="white">Eth0/0</text>
<text xml:space="preserve" text-anchor="middle" x="53.11" y="-200.73" font-family="Courier,monospace" font-size="14.00" fill="white">Eth0/1</text>
</g>
<!-- R5 -->
<g id="node7" class="node">
<title>R5</title>
<polygon fill="#006699" stroke="#006699" points="213.92,-349.55 139.07,-349.55 139.07,-276.95 213.92,-276.95 213.92,-349.55"/>
<text xml:space="preserve" text-anchor="middle" x="176.5" y="-307.45" font-family="Helvetica,sans-Serif" font-size="14.00" fill="white">R5</text>
</g>
<!-- R3&#45;&#45;R5 -->
<g id="edge10" class="edge">
<title>R3&#45;&#45;R5</title>
<path fill="none" stroke="green" stroke-dasharray="5,2" d="M144.01,-224.83C147.85,-230.54 151.5,-236.52 154.5,-242.45 159.89,-253.11 164.29,-265.35 167.7,-276.57"/>
<text xml:space="preserve" text-anchor="middle" x="210.48" y="-245.65" font-family="Courier,monospace" font-size="14.00" fill="white"> &#160;&#160;&#160;&#160;&#160;&#160;&#160;&#160;&#160;&#160;&#160;</text>
<text xml:space="preserve" text-anchor="middle" x="142.95" y="-263.27" font-family="Courier,monospace" font-size="14.00" fill="white">Eth0/0</text>
<text xml:space="preserve" text-anchor="middle" x="119.26" y="-228.03" font-family="Courier,monospace" font-size="14.00" fill="white">Eth0/2</text>
</g>
<!-- R1 -->
<g id="node3" class="node">
<title>R1</title>
<polygon fill="#006699" stroke="#006699" points="396.92,-224.45 322.07,-224.45 322.07,-151.85 396.92,-151.85 396.92,-224.45"/>
<text xml:space="preserve" text-anchor="middle" x="359.5" y="-182.35" font-family="Helvetica,sans-Serif" font-size="14.00" fill="white">R1</text>
</g>
<!-- R1&#45;&#45;SW1 -->
<g id="edge5" class="edge">
<title>R1&#45;&#45;SW1</title>
<path fill="none" stroke="green" stroke-dasharray="5,2" d="M388.01,-151.47C391.85,-145.76 395.5,-139.78 398.5,-133.85 403.89,-123.19 408.29,-110.95 411.7,-99.73"/>
<text xml:space="preserve" text-anchor="middle" x="454.48" y="-120.55" font-family="Courier,monospace" font-size="14.00" fill="white"> &#160;&#160;&#160;&#160;&#160;&#160;&#160;&#160;&#160;&#160;&#160;</text>
<text xml:space="preserve" text-anchor="middle" x="386.95" y="-102.93" font-family="Courier,monospace" font-size="14.00" fill="white">Eth0/1</text>
<text xml:space="preserve" text-anchor="middle" x="363.26" y="-138.17" font-family="Courier,monospace" font-size="14.00" fill="white">Eth0/0</text>
</g>
<!-- SW2 -->
<g id="node4" class="node">
<title>SW2</title>
<polygon fill="#006699" stroke="#006699" points="769.3,-349.55 681.7,-349.55 681.7,-276.95 769.3,-276.95 769.3,-349.55"/>
<text xml:space="preserve" text-anchor="middle" x="725.5" y="-307.45" font-family="Helvetica,sans-Serif" font-size="14.00" fill="white">SW2</text>
</g>
<!-- SW1&#45;&#45;R6 -->
<g id="edge4" class="edge">
<title>SW1&#45;&#45;R6</title>
<path fill="none" stroke="green" stroke-dasharray="5,2" d="M464.7,-84.77C479.62,-93.32 495.52,-104.3 507.5,-117.35 516.49,-127.13 523.72,-139.66 529.23,-151.39"/>
<text xml:space="preserve" text-anchor="middle" x="568.52" y="-120.55" font-family="Courier,monospace" font-size="14.00" fill="white"> &#160;&#160;&#160;&#160;&#160;&#160;&#160;&#160;&#160;&#160;&#160;</text>
<text xml:space="preserve" text-anchor="middle" x="504.48" y="-138.09" font-family="Courier,monospace" font-size="14.00" fill="white">Eth0/1</text>
<text xml:space="preserve" text-anchor="middle" x="489.45" y="-71.47" font-family="Courier,monospace" font-size="14.00" fill="white">Eth0/5</text>
</g>
<!-- SW1&#45;&#45;R3 -->
<g id="edge3" class="edge">
<title>SW1&#45;&#45;R3</title>
<path fill="none" stroke="green" stroke-dasharray="5,2" d="M376.51,-63.64C288.7,-63.85 96.54,-69.87 55.5,-117.35 41.6,-133.43 58.34,-151.64 77.63,-165.43"/>
<text xml:space="preserve" text-anchor="middle" x="105" y="-120.55" font-family="Courier,monospace" font-size="14.00" fill="white"> &#160;&#160;&#160;&#160;&#160;&#160;&#160;&#160;&#160;&#160;&#160;</text>
<text xml:space="preserve" text-anchor="middle" x="52.88" y="-152.13" font-family="Courier,monospace" font-size="14.00" fill="white">Eth0/0</text>
<text xml:space="preserve" text-anchor="middle" x="351.76" y="-66.84" font-family="Courier,monospace" font-size="14.00" fill="white">Eth0/3</text>
</g>
<!-- SW1&#45;&#45;R1 -->
<g id="edge1" class="edge">
<title>SW1&#45;&#45;R1</title>
<path fill="none" stroke="green" stroke-dasharray="5,2" d="M376.3,-71.12C349.15,-77.99 316.43,-91.39 299.5,-117.35 288.15,-134.75 303.8,-152.48 321.95,-165.71"/>
<text xml:space="preserve" text-anchor="middle" x="349" y="-120.55" font-family="Courier,monospace" font-size="14.00" fill="white"> &#160;&#160;&#160;&#160;&#160;&#160;&#160;&#160;&#160;&#160;&#160;</text>
<text xml:space="preserve" text-anchor="middle" x="297.2" y="-152.41" font-family="Courier,monospace" font-size="14.00" fill="white">Eth0/0</text>
<text xml:space="preserve" text-anchor="middle" x="351.55" y="-74.32" font-family="Courier,monospace" font-size="14.00" fill="white">Eth0/1</text>
</g>
<!-- R2 -->
<g id="node8" class="node">
<title>R2</title>
<polygon fill="#006699" stroke="#006699" points="762.92,-224.45 688.07,-224.45 688.07,-151.85 762.92,-151.85 762.92,-224.45"/>
<text xml:space="preserve" text-anchor="middle" x="725.5" y="-182.35" font-family="Helvetica,sans-Serif" font-size="14.00" fill="white">R2</text>
</g>
<!-- SW1&#45;&#45;R2 -->
<g id="edge2" class="edge">
<title>SW1&#45;&#45;R2</title>
<path fill="none" stroke="green" stroke-dasharray="5,2" d="M464.51,-71.22C506.43,-79.07 570.66,-93.78 622.5,-117.35 645.5,-127.81 669,-143.29 687.72,-157.02"/>
<text xml:space="preserve" text-anchor="middle" x="702.04" y="-120.55" font-family="Courier,monospace" font-size="14.00" fill="white"> &#160;&#160;&#160;&#160;&#160;&#160;&#160;&#160;&#160;&#160;&#160;</text>
<text xml:space="preserve" text-anchor="middle" x="662.97" y="-143.72" font-family="Courier,monospace" font-size="14.00" fill="white">Eth0/0</text>
<text xml:space="preserve" text-anchor="middle" x="489.26" y="-57.92" font-family="Courier,monospace" font-size="14.00" fill="white">Eth0/2</text>
</g>
<!-- R2&#45;&#45;SW2 -->
<g id="edge7" class="edge">
<title>R2&#45;&#45;SW2</title>
<path fill="none" stroke="green" stroke-dasharray="5,2" d="M725.5,-224.76C725.5,-241.09 725.5,-260.4 725.5,-276.72"/>
<text xml:space="preserve" text-anchor="middle" x="775" y="-245.65" font-family="Courier,monospace" font-size="14.00" fill="white"> &#160;&#160;&#160;&#160;&#160;&#160;&#160;&#160;&#160;&#160;&#160;</text>
<text xml:space="preserve" text-anchor="middle" x="696.62" y="-263.42" font-family="Courier,monospace" font-size="14.00" fill="white">Eth0/11</text>
<text xml:space="preserve" text-anchor="middle" x="700.75" y="-227.96" font-family="Courier,monospace" font-size="14.00" fill="white">Eth0/1</text>
</g>
<!-- R2&#45;&#45;SW1 -->
<g id="edge6" class="edge">
<title>R2&#45;&#45;SW1</title>
<path fill="none" stroke="green" stroke-dasharray="5,2" d="M755.26,-151.44C761.46,-139.72 763.89,-127.18 755.5,-117.35 718.61,-74.12 546.93,-65.78 464.67,-64.29"/>
<text xml:space="preserve" text-anchor="middle" x="810.39" y="-120.55" font-family="Courier,monospace" font-size="14.00" fill="white"> &#160;&#160;&#160;&#160;&#160;&#160;&#160;&#160;&#160;&#160;&#160;</text>
<text xml:space="preserve" text-anchor="middle" x="489.42" y="-50.99" font-family="Courier,monospace" font-size="14.00" fill="white">Eth0/2</text>
<text xml:space="preserve" text-anchor="middle" x="730.51" y="-138.14" font-family="Courier,monospace" font-size="14.00" fill="white">Eth0/0</text>
</g>
</g>
</svg>
