<?xml version="1.0" encoding="UTF-8" standalone="no"?>
<!DOCTYPE svg PUBLIC "-//W3C//DTD SVG 1.1//EN"
 "http://www.w3.org/Graphics/SVG/1.1/DTD/svg11.dtd">
<!-- Generated by graphviz version 13.0.1 (20250615.1724)
 -->
<!-- Pages: 1 -->
<svg width="875pt" height="232pt"
 viewBox="0.00 0.00 875.00 232.00" xmlns="http://www.w3.org/2000/svg" xmlns:xlink="http://www.w3.org/1999/xlink">
<g id="graph0" class="graph" transform="scale(1 1) rotate(0) translate(4 228.45)">
<polygon fill="#3f3f3f" stroke="none" points="-4,4 -4,-228.45 871.2,-228.45 871.2,4 -4,4"/>
<text xml:space="preserve" text-anchor="middle" x="433.6" y="-7.55" font-family="Times,serif" font-size="16.00" fill="white">Network Map</text>
<!-- R5 -->
<g id="node1" class="node">
<title>R5</title>
<polygon fill="#006699" stroke="#006699" points="582.6,-224.45 507.75,-224.45 507.75,-151.85 582.6,-151.85 582.6,-224.45"/>
<text xml:space="preserve" text-anchor="middle" x="545.17" y="-182.35" font-family="Helvetica,sans-Serif" font-size="14.00" fill="white">R5</text>
</g>
<!-- R6 -->
<g id="node2" class="node">
<title>R6</title>
<polygon fill="#006699" stroke="#006699" points="826.6,-224.45 751.75,-224.45 751.75,-151.85 826.6,-151.85 826.6,-224.45"/>
<text xml:space="preserve" text-anchor="middle" x="789.17" y="-182.35" font-family="Helvetica,sans-Serif" font-size="14.00" fill="white">R6</text>
</g>
<!-- R4 -->
<g id="node3" class="node">
<title>R4</title>
<polygon fill="#006699" stroke="#006699" points="399.6,-99.35 324.75,-99.35 324.75,-26.75 399.6,-26.75 399.6,-99.35"/>
<text xml:space="preserve" text-anchor="middle" x="362.17" y="-57.25" font-family="Helvetica,sans-Serif" font-size="14.00" fill="white">R4</text>
</g>
<!-- R4&#45;&#45;R5 -->
<g id="edge7" class="edge">
<title>R4&#45;&#45;R5</title>
<path fill="none" stroke="green" stroke-dasharray="5,2" d="M388.59,-99.59C398.75,-111.57 411.07,-124.3 424.17,-133.85 449.59,-152.37 482.45,-166.33 507.52,-175.31"/>
<text xml:space="preserve" text-anchor="middle" x="473.67" y="-120.55" font-family="Courier,monospace" font-size="14.00" fill="white"> &#160;&#160;&#160;&#160;&#160;&#160;&#160;&#160;&#160;&#160;&#160;</text>
<text xml:space="preserve" text-anchor="middle" x="478.64" y="-162.01" font-family="Courier,monospace" font-size="14.00" fill="white">Eth 0/1</text>
<text xml:space="preserve" text-anchor="middle" x="359.71" y="-102.79" font-family="Courier,monospace" font-size="14.00" fill="white">Eth 0/1</text>
</g>
<!-- SW1 -->
<g id="node6" class="node">
<title>SW1</title>
<polygon fill="#006699" stroke="#006699" points="283.97,-224.45 196.37,-224.45 196.37,-151.85 283.97,-151.85 283.97,-224.45"/>
<text xml:space="preserve" text-anchor="middle" x="240.17" y="-182.35" font-family="Helvetica,sans-Serif" font-size="14.00" fill="white">SW1</text>
</g>
<!-- R4&#45;&#45;SW1 -->
<g id="edge6" class="edge">
<title>R4&#45;&#45;SW1</title>
<path fill="none" stroke="green" stroke-dasharray="5,2" d="M324.42,-96.37C316.9,-103.14 309.17,-110.35 302.17,-117.35 291.4,-128.12 280.18,-140.4 270.29,-151.61"/>
<text xml:space="preserve" text-anchor="middle" x="351.67" y="-120.55" font-family="Courier,monospace" font-size="14.00" fill="white"> &#160;&#160;&#160;&#160;&#160;&#160;&#160;&#160;&#160;&#160;&#160;</text>
<text xml:space="preserve" text-anchor="middle" x="241.42" y="-138.31" font-family="Courier,monospace" font-size="14.00" fill="white">Eth 0/4</text>
<text xml:space="preserve" text-anchor="middle" x="295.54" y="-83.07" font-family="Courier,monospace" font-size="14.00" fill="white">Eth 0/0</text>
</g>
<!-- R1 -->
<g id="node4" class="node">
<title>R1</title>
<polygon fill="#006699" stroke="#006699" points="94.6,-99.35 19.75,-99.35 19.75,-26.75 94.6,-26.75 94.6,-99.35"/>
<text xml:space="preserve" text-anchor="middle" x="57.17" y="-57.25" font-family="Helvetica,sans-Serif" font-size="14.00" fill="white">R1</text>
</g>
<!-- R1&#45;&#45;SW1 -->
<g id="edge1" class="edge">
<title>R1&#45;&#45;SW1</title>
<path fill="none" stroke="green" stroke-dasharray="5,2" d="M57.75,-99.64C59.64,-111.77 63.75,-124.59 72.17,-133.85 103.76,-168.61 157.87,-180.85 196.13,-185.08"/>
<text xml:space="preserve" text-anchor="middle" x="121.67" y="-120.55" font-family="Courier,monospace" font-size="14.00" fill="white"> &#160;&#160;&#160;&#160;&#160;&#160;&#160;&#160;&#160;&#160;&#160;</text>
<text xml:space="preserve" text-anchor="middle" x="167.26" y="-171.78" font-family="Courier,monospace" font-size="14.00" fill="white">Eth 0/1</text>
<text xml:space="preserve" text-anchor="middle" x="28.88" y="-102.84" font-family="Courier,monospace" font-size="14.00" fill="white">Eth 0/0</text>
</g>
<!-- R2 -->
<g id="node5" class="node">
<title>R2</title>
<polygon fill="#006699" stroke="#006699" points="704.6,-99.35 629.75,-99.35 629.75,-26.75 704.6,-26.75 704.6,-99.35"/>
<text xml:space="preserve" text-anchor="middle" x="667.17" y="-57.25" font-family="Helvetica,sans-Serif" font-size="14.00" fill="white">R2</text>
</g>
<!-- R2&#45;&#45;R5 -->
<g id="edge3" class="edge">
<title>R2&#45;&#45;R5</title>
<path fill="none" stroke="green" stroke-dasharray="5,2" d="M661.57,-99.69C658.32,-111.54 653.21,-124.17 645.17,-133.85 628.95,-153.37 603.69,-166.75 582.61,-175.23"/>
<text xml:space="preserve" text-anchor="middle" x="704.1" y="-120.55" font-family="Courier,monospace" font-size="14.00" fill="white"> &#160;&#160;&#160;&#160;&#160;&#160;&#160;&#160;&#160;&#160;&#160;</text>
<text xml:space="preserve" text-anchor="middle" x="611.49" y="-161.93" font-family="Courier,monospace" font-size="14.00" fill="white">Eth 0/0</text>
<text xml:space="preserve" text-anchor="middle" x="632.69" y="-102.89" font-family="Courier,monospace" font-size="14.00" fill="white">Eth 0/1</text>
</g>
<!-- R2&#45;&#45;R6 -->
<g id="edge4" class="edge">
<title>R2&#45;&#45;R6</title>
<path fill="none" stroke="green" stroke-dasharray="5,2" d="M704.94,-79.93C722.59,-88.86 742.83,-101.43 757.17,-117.35 766,-127.16 772.79,-139.82 777.79,-151.66"/>
<text xml:space="preserve" text-anchor="middle" x="817.7" y="-120.55" font-family="Courier,monospace" font-size="14.00" fill="white"> &#160;&#160;&#160;&#160;&#160;&#160;&#160;&#160;&#160;&#160;&#160;</text>
<text xml:space="preserve" text-anchor="middle" x="748.92" y="-138.36" font-family="Courier,monospace" font-size="14.00" fill="white">Eth 0/1</text>
<text xml:space="preserve" text-anchor="middle" x="733.81" y="-66.63" font-family="Courier,monospace" font-size="14.00" fill="white">Eth 0/2</text>
</g>
<!-- R2&#45;&#45;SW1 -->
<g id="edge2" class="edge">
<title>R2&#45;&#45;SW1</title>
<path fill="none" stroke="green" stroke-dasharray="5,2" d="M629.29,-76.68C603.69,-86.05 569.67,-100.14 542.17,-117.35 532.69,-123.28 533.24,-128.98 523.17,-133.85 444.64,-171.85 341.68,-182.81 284.08,-185.94"/>
<text xml:space="preserve" text-anchor="middle" x="591.67" y="-120.55" font-family="Courier,monospace" font-size="14.00" fill="white"> &#160;&#160;&#160;&#160;&#160;&#160;&#160;&#160;&#160;&#160;&#160;</text>
<text xml:space="preserve" text-anchor="middle" x="312.95" y="-172.64" font-family="Courier,monospace" font-size="14.00" fill="white">Eth 0/2</text>
<text xml:space="preserve" text-anchor="middle" x="600.42" y="-63.38" font-family="Courier,monospace" font-size="14.00" fill="white">Eth 0/0</text>
</g>
<!-- R3 -->
<g id="node7" class="node">
<title>R3</title>
<polygon fill="#006699" stroke="#006699" points="216.6,-99.35 141.75,-99.35 141.75,-26.75 216.6,-26.75 216.6,-99.35"/>
<text xml:space="preserve" text-anchor="middle" x="179.17" y="-57.25" font-family="Helvetica,sans-Serif" font-size="14.00" fill="white">R3</text>
</g>
<!-- R3&#45;&#45;SW1 -->
<g id="edge5" class="edge">
<title>R3&#45;&#45;SW1</title>
<path fill="none" stroke="green" stroke-dasharray="5,2" d="M174.17,-99.73C174,-111.07 175.38,-123.38 180.17,-133.85 183.94,-142.08 189.67,-149.57 196.11,-156.16"/>
<text xml:space="preserve" text-anchor="middle" x="229.67" y="-120.55" font-family="Courier,monospace" font-size="14.00" fill="white"> &#160;&#160;&#160;&#160;&#160;&#160;&#160;&#160;&#160;&#160;&#160;</text>
<text xml:space="preserve" text-anchor="middle" x="167.23" y="-142.86" font-family="Courier,monospace" font-size="14.00" fill="white">Eth 0/3</text>
<text xml:space="preserve" text-anchor="middle" x="145.3" y="-102.93" font-family="Courier,monospace" font-size="14.00" fill="white">Eth 0/0</text>
</g>
</g>
</svg>
